<?xml version="1.0" encoding="UTF-8" standalone="no"?>
<!-- Created with Inkscape (http://www.inkscape.org/) -->

<svg
   xmlns:dc="http://purl.org/dc/elements/1.1/"
   xmlns:cc="http://creativecommons.org/ns#"
   xmlns:rdf="http://www.w3.org/1999/02/22-rdf-syntax-ns#"
   xmlns:svg="http://www.w3.org/2000/svg"
   xmlns="http://www.w3.org/2000/svg"
   xmlns:sodipodi="http://sodipodi.sourceforge.net/DTD/sodipodi-0.dtd"
   xmlns:inkscape="http://www.inkscape.org/namespaces/inkscape"
   width="768px"
   height="768px"
   viewBox="0 0 768 768"
   version="1.1"
   id="SVGRoot"
   inkscape:version="0.92.5 (2060ec1f9f, 2020-04-08)"
   sodipodi:docname="salt-bg.svg">
  <defs
     id="defs278" />
  <sodipodi:namedview
     id="base"
     pagecolor="#ffffff"
     bordercolor="#666666"
     borderopacity="1.0"
     inkscape:pageopacity="0.0"
     inkscape:pageshadow="2"
     inkscape:zoom="0.92695312"
     inkscape:cx="365.12094"
     inkscape:cy="384"
     inkscape:document-units="px"
     inkscape:current-layer="layer1"
     showgrid="false"
     inkscape:window-width="1528"
     inkscape:window-height="836"
     inkscape:window-x="72"
     inkscape:window-y="27"
     inkscape:window-maximized="1" />
  <metadata
     id="metadata281">
    <rdf:RDF>
      <cc:Work
         rdf:about="">
        <dc:format>image/svg+xml</dc:format>
        <dc:type
           rdf:resource="http://purl.org/dc/dcmitype/StillImage" />
        <dc:title />
      </cc:Work>
    </rdf:RDF>
  </metadata>
  <g
     inkscape:label="Layer 1"
     inkscape:groupmode="layer"
     id="layer1">
    <path
       d="M 787.12606,319.87769 C 793.71251,247.22016 851.47707,133.39805 974.87988,44.567393 A 3036.0105,1629.5928 0 0 0 454.5442,345.96613 c -9.84189,6.50176 -21.04675,6.09543 -35.05263,5.56714 6.05653,1.9099 14.68738,3.98234 20.81962,5.20142 a 156.33539,83.913753 0 0 0 78.35692,2.1131 c 31.34298,-25.60079 63.13999,-50.59208 95.46707,-75.05508 a 822.48311,441.47168 0 0 0 -62.8372,70.46314 c 78.3569,-13.89752 153.45856,-45.10618 235.75242,-34.37816 z m -104.93024,53.39599 c -6.58641,72.69811 -64.35119,186.47947 -187.75383,275.3102 A 3035.8592,1629.5116 0 0 0 1014.7778,347.18523 c 9.8418,-6.50183 21.0465,-6.09543 35.0522,-5.56715 -6.0565,-1.90998 -14.687,-3.98233 -20.8194,-5.20142 a 156.41112,83.954388 0 0 0 -78.357,-2.11315 4630.8588,2485.6351 0 0 1 -95.46686,75.05508 823.08876,441.79677 0 0 0 62.83699,-70.46316 c -78.35691,13.89759 -153.45838,45.10617 -235.7522,34.37825 z"
       id="path2"
       style="fill:#f9f9f9;stroke-width:5.54657507"
       inkscape:connector-curvature="0" />
    <path
       d="m -55.291111,408.36244 c 72.65753,6.58645 186.479651,64.35101 275.310291,187.75382 A 1629.5928,3036.0105 0 0 0 -81.379551,75.780594 c -6.50176,-9.84189 -6.09543,-21.046749 -5.56714,-35.052628 -1.9099,6.05653 -3.98234,14.687379 -5.20142,20.819618 a 83.913753,156.33539 0 0 0 -2.1131,78.356906 c 25.60079,31.34297 50.59208,63.13999 75.05508,95.46707 a 441.47168,822.48311 0 0 0 -70.46314,-62.83721 c 13.89752,78.35691 45.10618,153.45857 34.37816,235.75243 z M -108.6871,303.4322 c -72.69811,-6.58641 -186.47946,-64.35119 -275.31019,-187.75382 a 1629.5116,3035.8592 0 0 0 301.398639,520.33578 c 6.50183,9.84186 6.09543,21.04647 5.56715,35.05221 1.90998,-6.05653 3.98233,-14.68703 5.20142,-20.81942 a 83.954388,156.41112 0 0 0 2.11315,-78.35697 2485.6351,4630.8588 0 0 1 -75.055079,-95.46686 441.79677,823.08876 0 0 0 70.463159,62.83699 C -88.206441,460.9032 -119.41502,385.80173 -108.6871,303.50791 Z"
       id="path2-3"
       style="fill:#f9f9f9;stroke-width:5.54657507"
       inkscape:connector-curvature="0" />
  </g>
</svg>
