<?xml version="1.0" ?><svg height="60" id="Food_1" viewBox="0 0 60 60" width="60" xmlns="http://www.w3.org/2000/svg"><title/><path d="M46.64925,19l4.66,20.71h-.01c-6.86-1.68-13.72-5.73-20.59-5.73s-13.73,4.05-20.59,5.73l-.12-.03,4.65-20.68Z" style="fill:#d4edff;opacity:0.5"/><path d="M53.34926,51.68a6,6,0,0,1-5.85,7.32h-35a6,6,0,0,1-5.85-7.32l2.7-12,.12.03c6.86-1.68,13.72-5.73,20.59-5.73s13.73,4.05,20.59,5.73h.01Z" style="fill:#eef6ff"/><path d="M25.05308,51.68286,27.71263,19H19.46391L13.12748,51.68286C12.40025,55.43408,14.85832,59,18.17143,59h8.99872C25.77952,59,24.74785,55.43408,25.05308,51.68286Z" style="fill:#fff"/><path d="M8.86928,42.71c6.86-1.68,14.32-5.73,21.19-5.73s14.43,4.05,21.29,5.73l-.69-3s-13.73-5.73-20.6-5.73-13.73,4.05-20.59,5.73Z" style="fill:#fff;opacity:0.75"/><g style="opacity:0.2"><path d="M53.37352,51.68286,45.99925,19h-7L41.6588,51.68286C41.964,55.43408,40.93236,59,39.54173,59h8.7879C51.64274,59,54.10075,55.43408,53.37352,51.68286Z" style="fill:#2c4b75"/><path d="M53.31,51.49182A5.99955,5.99955,0,0,1,47.49925,56h-35a5.99961,5.99961,0,0,1-5.81073-4.50818l-.043.191A6.00011,6.00011,0,0,0,12.49925,59h35a6.00008,6.00008,0,0,0,5.8537-7.31714Z" style="fill:#2c4b75"/><polygon points="46.674 22 45.999 19 13.999 19 13.325 22 46.674 22" style="fill:#2c4b75"/></g><path d="M52.11926,13.88a2.99813,2.99813,0,0,1-2.12,5.12h-40a3,3,0,0,1,0-6h3.05a17.97094,17.97094,0,0,1,33.9,0h3.05A2.99282,2.99282,0,0,1,52.11926,13.88Z" style="fill:#ced8ee"/><g style="opacity:0.75"><path d="M25.99925,14c0-7.17969,2.68628-13,6-13a13,13,0,0,0-13,13C18.99925,19,25.99925,17,25.99925,14Z" style="fill:#fff"/><rect height="6" rx="3" ry="3" style="fill:#fff" width="13" x="15.99925" y="12.99999"/></g><g style="opacity:0.2"><path d="M49.99925,13h-12c1,0,2,1.34314,2,3s-1,3-2,3h12a3,3,0,0,0,0-6Z" style="fill:#2c4b75"/><path d="M40.52751,13l3.47174,2,2.95-2a17.98173,17.98173,0,0,0-16.95-12c-.38715,0-.76892.02179-1.15.0459C34.26335,1.50983,38.79216,6.35565,40.52751,13Z" style="fill:#2c4b75"/><path d="M49.99925,19a2.996,2.996,0,0,0,3-3A3,3,0,0,1,49.99925,19Z" style="fill:#2c4b75"/></g><path d="M47.499,60h-35a7.00009,7.00009,0,0,1-6.8291-8.53711l7.35352-32.68262A.99988.99988,0,0,1,13.999,18h32a.99988.99988,0,0,1,.97559.78027l7.35352,32.68262A6.99882,6.99882,0,0,1,47.499,60ZM14.79883,20,7.62109,51.90234A4.99936,4.99936,0,0,0,12.499,58h35A4.99911,4.99911,0,0,0,52.377,51.90234L45.19922,20Z" style="fill:#6d6daa"/><path d="M50.65039,40.709a.9932.9932,0,0,1-.23828-.02832,70.713,70.713,0,0,1-7.71582-2.543c-4.17285-1.55469-8.4873-3.16211-12.63867-3.16211-4.15332,0-8.46875,1.6084-12.64355,3.16309a70.87592,70.87592,0,0,1-7.709,2.542,1.00047,1.00047,0,1,1-.47656-1.94336,69.11137,69.11137,0,0,0,7.4873-2.47266c4.34082-1.61719,8.82813-3.28906,13.3418-3.28906,4.51172,0,8.998,1.6709,13.33691,3.28711a68.99127,68.99127,0,0,0,7.49219,2.47461,1.0001,1.0001,0,0,1-.23633,1.97168Z" style="fill:#6d6daa"/><path d="M49.999,20h-40a4,4,0,0,1,0-8h2.35449a18.97422,18.97422,0,0,1,35.292,0H49.999a4,4,0,0,1,0,8Zm-40-6a2,2,0,0,0,0,4h40a2,2,0,0,0,0-4h-3.0459a.99839.99839,0,0,1-.94238-.666,16.97632,16.97632,0,0,0-32.02246,0A.99933.99933,0,0,1,13.0459,14Z" style="fill:#6d6daa"/><path d="M35.09886,14.02148a1.5,1.5,0,1,1,1.5-1.5A1.50164,1.50164,0,0,1,35.09886,14.02148Z" style="fill:#6d6daa"/><path d="M25.09886,14.02148a1.5,1.5,0,1,1,1.5-1.5A1.50164,1.50164,0,0,1,25.09886,14.02148Z" style="fill:#6d6daa"/><path d="M30.09886,9.0293a1.5,1.5,0,1,1,1.5-1.501A1.50248,1.50248,0,0,1,30.09886,9.0293Z" style="fill:#6d6daa"/></svg>