<?xml version="1.0" encoding="UTF-8"?>
<svg width="154px" height="246px" viewBox="0 0 154 246" version="1.1" xmlns="http://www.w3.org/2000/svg" xmlns:xlink="http://www.w3.org/1999/xlink">
    <!-- Generator: Sketch 53.2 (72643) - https://sketchapp.com -->
    <title>salt</title>
    <desc>Created with Sketch.</desc>
    <g id="Page-1" stroke="none" stroke-width="1" fill="none" fill-rule="evenodd" opacity="0.1">
        <g id="salt" transform="translate(0.000000, 16.000000)" fill-rule="nonzero">
            <path d="M158.176713,73 L176,153 L175.961753,153 C149.724038,146.510381 123.486323,130.865765 97.2103607,130.865765 C70.9343985,130.865765 44.6966836,146.510381 18.4589688,153 L18,152.884114 L35.7850399,73 L158.176713,73 Z" id="Path" fill="#D4EDFF" opacity="0.5"></path>
            <path d="M182.43987,198.913669 C183.967254,205.735909 182.333252,212.887644 177.998922,218.350899 C173.664593,223.814154 167.099942,226.996504 160.15729,227 L26.8427099,227 C19.9000582,226.996504 13.335407,223.814154 9.00107753,218.350899 C4.66674804,212.887644 3.03274558,205.735909 4.56013002,198.913669 L14.8443976,152.870504 L15.3014762,152.985612 C41.4311339,146.539568 67.5607917,131 93.7285393,131 C119.896287,131 146.025945,146.539568 172.155602,152.985612 L172.193692,152.985612 L182.43987,198.913669 Z" id="Path" fill="#EEF6FF"></path>
            <path d="M74.8775931,198.011939 L85,73 L53.6048765,73 L29.4880436,198.011939 C26.7201626,212.360356 36.0757245,226 48.6856201,226 L82.9352886,226 C77.6424673,226 73.7158694,212.360356 74.8775931,198.011939 Z" id="Path" fill="#FFFFFF"></path>
            <path d="M14,164 C40.1610169,157.649485 68.6101695,142.340206 94.809322,142.340206 C121.008475,142.340206 149.838983,157.649485 176,164 L173.368644,152.659794 C173.368644,152.659794 121.008475,131 94.809322,131 C68.6101695,131 42.4491525,146.309278 16.2881356,152.659794 L14,164 Z" id="Path" fill="#FFFFFF" opacity="0.75"></path>
            <g id="Group" opacity="0.2" transform="translate(3.000000, 73.000000)" fill="#2C4B75">
                <path d="M180.332603,125.01194 L151.990707,0 L125.087262,0 L135.308842,125.01194 C136.481832,139.360356 132.516879,153 127.172202,153 L160.947172,153 C173.680611,153 183.127602,139.360356 180.332603,125.01194 Z" id="Path"></path>
                <path d="M180.088474,124.281211 C177.4718,134.428593 168.282204,141.524159 157.755731,141.525 L23.2385037,141.525 C12.7120873,141.524042 3.52257722,134.428518 0.905838285,124.281211 L0.740574263,125.011786 C-0.797156477,131.813664 0.855199107,138.942415 5.23140836,144.386573 C9.60761762,149.83073 16.2331406,152.999951 23.2385037,153 L157.755731,153 C164.761056,152.999949 171.386542,149.830746 175.762728,144.386619 C180.138915,138.942491 181.791264,131.813781 180.253545,125.011939 L180.088474,124.281211 Z" id="Path"></path>
                <polygon id="Path" points="154.584007 11.475 151.989746 0 29.0025669 0 26.4121494 11.475"></polygon>
            </g>
            <path d="M177.632689,53.0888817 C180.918524,56.4227611 181.903203,61.4410614 180.127044,65.8010718 C178.350886,70.1610823 174.164172,73.0029507 169.521402,72.9999977 L16.4782373,72.9999977 C10.1389819,72.9999977 5,67.7766518 5,61.3333282 C5,54.8900045 10.1389819,49.6666586 16.4782373,49.6666586 L28.1477786,49.6666586 C37.838815,21.7046379 63.832404,3 92.9998195,3 C122.167235,3 148.160824,21.7046379 157.85186,49.6666586 L169.521402,49.6666586 C172.565197,49.6663083 175.483883,50.8977272 177.632689,53.0888817 Z" id="Path" fill="#CED8EE"></path>
            <g id="Group" opacity="0.75" transform="translate(40.000000, 3.000000)" fill="#FFFFFF">
                <path d="M38.2374912,50.5555556 C38.2374912,22.6345389 48.4272962,0 60.997155,0 C33.7625553,-3.88578059e-15 11.68455,22.6344932 11.68455,50.5555556 C11.68455,70 38.2374912,62.2222222 38.2374912,50.5555556 Z" id="Path"></path>
                <rect id="Rectangle" x="0.304718067" y="46.6666278" width="49.312605" height="23.3333333" rx="3"></rect>
            </g>
            <g id="Group" opacity="0.2" transform="translate(90.000000, 3.000000)" fill="#2C4B75">
                <path d="M81.5082389,46.6666667 L35.5526833,46.6666667 C39.382313,46.6666667 43.2119426,51.8899889 43.2119426,58.3333333 C43.2119426,64.7766778 39.382313,70 35.5526833,70 L81.5082389,70 C87.853377,70 92.9971278,64.7766554 92.9971278,58.3333333 C92.9971278,51.8900113 87.853377,46.6666667 81.5082389,46.6666667 Z" id="Path"></path>
                <path d="M45.2349827,46.6666667 L58.5304611,54.4444444 L69.8278685,46.6666667 C60.1174623,18.712608 34.1061874,0.0125935382 4.9156463,0 C3.43300519,0 1.97096748,0.0847388889 0.511572222,0.1785 C21.24557,1.98267222 38.589235,20.8275278 45.2349827,46.6666667 Z" id="Path"></path>
            </g>
            <path d="M161.141806,229.999999 L26.8569363,229.999999 C18.6979433,229.999811 10.9814281,226.317034 5.88481318,219.990864 C0.788198257,213.664694 -1.13582579,205.381157 0.655656235,197.477676 L28.868984,72.9724571 C29.2630617,71.2344443 30.8177742,69.9997946 32.6120021,70 L155.38674,70 C157.180982,69.9997768 158.735716,71.2344304 159.129796,72.9724571 L187.343124,197.477676 C189.136558,205.381395 187.213276,213.666015 182.116242,219.992696 C177.019209,226.319376 169.301461,230.001661 161.141806,229.999999 L161.141806,229.999999 Z M35.6807183,77.6190476 L8.1418075,199.151771 C6.86147137,204.797078 8.23552608,210.714165 11.8761317,215.232877 C15.5167374,219.75159 21.028965,222.381743 26.8569363,222.380952 L161.141806,222.380952 C166.969967,222.382209 172.482533,219.752196 176.123298,215.233369 C179.764063,210.714542 181.138013,204.797182 179.85728,199.151771 L152.318216,77.6190476 L35.6807183,77.6190476 Z" id="Shape" fill="#6D6DAA"></path>
            <path d="M173.181626,156.997316 C172.874893,156.998187 172.569186,156.961301 172.271199,156.887465 C162.266172,154.175706 152.422987,150.882241 142.790365,147.023372 C126.846617,140.992854 110.361838,134.757801 94.5001611,134.757801 C78.6310331,134.757801 62.1425105,140.996655 46.1913111,147.027173 C36.5666605,150.882463 26.7322777,154.174598 16.7365357,156.887387 C15.409631,157.219033 14.0092633,156.806364 13.063501,155.804997 C12.1177387,154.803629 11.7704488,153.365887 12.1525918,152.033933 C12.5347348,150.701979 13.5881802,149.678426 14.9156812,149.34925 C24.623605,146.707475 34.1750454,143.505182 43.5233786,139.758 C60.1089121,133.48505 77.254159,127 94.5001229,127 C111.738636,127 128.879948,133.481287 145.458183,139.750436 C154.812126,143.50182 164.36988,146.706664 174.084565,149.34925 C175.962763,149.814628 177.202664,151.630835 176.972577,153.57961 C176.742491,155.528385 175.114918,156.995664 173.181588,156.997238 L173.181626,156.997316 Z" id="Path" fill="#6D6DAA"></path>
            <path d="M171.583333,77 L17.4166667,77 C8.90227677,77 2,70.105186 2,61.600002 C2,53.0948179 8.90227677,46.200004 17.4166667,46.200004 L26.4912635,46.200004 C37.522929,18.3181237 64.48888,4.82124061e-15 94.5018885,0 C124.514897,-4.82124061e-15 151.480848,18.3181237 162.512514,46.200004 L171.583333,46.200004 C180.097723,46.200004 187,53.0948179 187,61.600002 C187,70.105186 180.097723,77 171.583333,77 L171.583333,77 Z M17.4166667,53.900003 C13.1594717,53.900003 9.70833333,57.34741 9.70833333,61.600002 C9.70833333,65.852594 13.1594717,69.300001 17.4166667,69.300001 L171.583333,69.300001 C175.840528,69.300001 179.291667,65.852594 179.291667,61.600002 C179.291667,57.34741 175.840528,53.900003 171.583333,53.900003 L159.843927,53.900003 C158.211279,53.9015467 156.755388,52.8737496 156.211838,51.3359033 C146.987844,25.18932 122.254485,7.70007023 94.5018885,7.70007023 C66.7492922,7.70007023 42.0159334,25.18932 32.7919396,51.3359033 C32.2474889,52.8730355 30.7922013,53.9004279 29.1599271,53.900003 L17.4166667,53.900003 Z" id="Shape" fill="#6D6DAA"></path>
            <path d="M114,54 C110.686292,54 108,51.3137085 108,48 C108,44.6862915 110.686292,42 114,42 C117.313708,42 120,44.6862915 120,48 C119.996385,51.3122098 117.31221,53.9963846 114,54 L114,54 Z" id="Path" fill="#6D6DAA"></path>
            <path d="M76,54 C72.6862915,54 70,51.3137085 70,48 C70,44.6862915 72.6862915,42 76,42 C79.3137085,42 82,44.6862915 82,48 C81.9963846,51.3122098 79.3122098,53.9963846 76,54 L76,54 Z" id="Path" fill="#6D6DAA"></path>
            <path d="M94.9999993,35 C91.6868113,34.9999993 89.0007359,32.31452 89.0000002,29.0013325 C88.9992644,25.6881449 91.6841468,23.0014729 94.9973344,23.0000006 C98.3105221,22.9985283 100.997791,25.6828131 101,28.996 C100.996741,32.3090057 98.3130025,34.9945331 94.9999993,35 L94.9999993,35 Z" id="Path" fill="#6D6DAA"></path>
        </g>
    </g>
</svg>