<?xml version="1.0" encoding="UTF-8"?>
<svg width="175px" height="95px" viewBox="0 0 175 95" version="1.1" xmlns="http://www.w3.org/2000/svg" xmlns:xlink="http://www.w3.org/1999/xlink">
    <!-- Generator: Sketch 53.2 (72643) - https://sketchapp.com -->
    <title>salt-stars-bg</title>
    <desc>Created with Sketch.</desc>
    <g id="Page-1" stroke="none" stroke-width="1" fill="none" fill-rule="evenodd" opacity="0.5">
        <g id="salt-stars-bg" fill="#C0DCEB" fill-rule="nonzero">
            <path d="M27.53525,56.24025 C27.37525,55.19325 25.86525,55.19325 25.70725,56.24025 L24.76225,62.44225 C24.70225,62.84225 24.38725,63.15625 23.98725,63.21725 L17.78525,64.16225 C16.73825,64.32225 16.73825,65.83225 17.78525,65.99225 L23.98725,66.93725 C24.38725,66.99725 24.70125,67.31225 24.76225,67.71225 L25.70725,73.91425 C25.86725,74.96125 27.37725,74.96125 27.53525,73.91425 L28.48025,67.71225 C28.54025,67.31225 28.85525,66.99825 29.25525,66.93725 L35.45725,65.99225 C36.50425,65.83225 36.50425,64.32225 35.45725,64.16225 L29.25525,63.21725 C28.85525,63.15725 28.54125,62.84225 28.48025,62.44225 L27.53525,56.24025 Z M146.01225,36.48525 C145.85225,35.43825 144.34225,35.43825 144.18225,36.48525 L143.23725,42.68725 C143.17725,43.08725 142.86225,43.40125 142.46225,43.46225 L136.26025,44.40725 C135.21325,44.56725 135.21325,46.07725 136.26025,46.23525 L142.46225,47.18025 C142.86225,47.24025 143.17625,47.55525 143.23725,47.95525 L144.18225,54.15725 C144.34225,55.20425 145.85225,55.20425 146.01225,54.15725 L146.95725,47.95525 C147.01725,47.55525 147.33225,47.24125 147.73225,47.18025 L153.93225,46.23525 C154.98025,46.07525 154.98025,44.56525 153.93225,44.40725 L147.73225,43.46225 C147.33225,43.40225 147.01825,43.08725 146.95725,42.68725 L146.01225,36.48525 Z M69.52225,0.78525 C69.68225,-0.26175 71.19225,-0.26175 71.35225,0.78525 L71.65225,2.82525 C71.71225,3.22525 72.02725,3.53925 72.42725,3.60025 L74.46725,3.90025 C75.51425,4.06025 75.51425,5.57025 74.46725,5.73025 L72.42725,6.03025 C72.02725,6.09025 71.71325,6.40525 71.65225,6.80525 L71.35225,8.84525 C71.19225,9.89225 69.68225,9.89225 69.52225,8.84525 L69.22225,6.80525 C69.16225,6.40525 68.84725,6.09125 68.44725,6.03025 L66.40725,5.73025 C65.36025,5.57025 65.36025,4.06025 66.40725,3.90025 L68.44725,3.60025 C68.84725,3.54025 69.16125,3.22525 69.22225,2.82525 L69.52225,0.78525 Z" id="Shape"></path>
            <path d="M47.53525,76.24025 C47.37525,75.19325 45.86525,75.19325 45.70725,76.24025 L44.76225,82.44225 C44.70225,82.84225 44.38725,83.15625 43.98725,83.21725 L37.78525,84.16225 C36.73825,84.32225 36.73825,85.83225 37.78525,85.99225 L43.98725,86.93725 C44.38725,86.99725 44.70125,87.31225 44.76225,87.71225 L45.70725,93.91425 C45.86725,94.96125 47.37725,94.96125 47.53525,93.91425 L48.48025,87.71225 C48.54025,87.31225 48.85525,86.99825 49.25525,86.93725 L55.45725,85.99225 C56.50425,85.83225 56.50425,84.32225 55.45725,84.16225 L49.25525,83.21725 C48.85525,83.15725 48.54125,82.84225 48.48025,82.44225 L47.53525,76.24025 Z M166.01225,56.48525 C165.85225,55.43825 164.34225,55.43825 164.18225,56.48525 L163.23725,62.68725 C163.17725,63.08725 162.86225,63.40125 162.46225,63.46225 L156.26025,64.40725 C155.21325,64.56725 155.21325,66.07725 156.26025,66.23525 L162.46225,67.18025 C162.86225,67.24025 163.17625,67.55525 163.23725,67.95525 L164.18225,74.15725 C164.34225,75.20425 165.85225,75.20425 166.01225,74.15725 L166.95725,67.95525 C167.01725,67.55525 167.33225,67.24125 167.73225,67.18025 L173.93225,66.23525 C174.98025,66.07525 174.98025,64.56525 173.93225,64.40725 L167.73225,63.46225 C167.33225,63.40225 167.01825,63.08725 166.95725,62.68725 L166.01225,56.48525 Z M89.52225,20.78525 C89.68225,19.73825 91.19225,19.73825 91.35225,20.78525 L91.65225,22.82525 C91.71225,23.22525 92.02725,23.53925 92.42725,23.60025 L94.46725,23.90025 C95.51425,24.06025 95.51425,25.57025 94.46725,25.73025 L92.42725,26.03025 C92.02725,26.09025 91.71325,26.40525 91.65225,26.80525 L91.35225,28.84525 C91.19225,29.89225 89.68225,29.89225 89.52225,28.84525 L89.22225,26.80525 C89.16225,26.40525 88.84725,26.09125 88.44725,26.03025 L86.40725,25.73025 C85.36025,25.57025 85.36025,24.06025 86.40725,23.90025 L88.44725,23.60025 C88.84725,23.54025 89.16125,23.22525 89.22225,22.82525 L89.52225,20.78525 Z" id="Shape"></path>
            <path d="M10.53525,63.24025 C10.37525,62.19325 8.86525,62.19325 8.70725,63.24025 L7.76225,69.44225 C7.70225,69.84225 7.38725,70.15625 6.98725,70.21725 L0.78525,71.16225 C-0.26175,71.32225 -0.26175,72.83225 0.78525,72.99225 L6.98725,73.93725 C7.38725,73.99725 7.70125,74.31225 7.76225,74.71225 L8.70725,80.91425 C8.86725,81.96125 10.37725,81.96125 10.53525,80.91425 L11.48025,74.71225 C11.54025,74.31225 11.85525,73.99825 12.25525,73.93725 L18.45725,72.99225 C19.50425,72.83225 19.50425,71.32225 18.45725,71.16225 L12.25525,70.21725 C11.85525,70.15725 11.54125,69.84225 11.48025,69.44225 L10.53525,63.24025 Z M129.01225,43.48525 C128.85225,42.43825 127.34225,42.43825 127.18225,43.48525 L126.23725,49.68725 C126.17725,50.08725 125.86225,50.40125 125.46225,50.46225 L119.26025,51.40725 C118.21325,51.56725 118.21325,53.07725 119.26025,53.23525 L125.46225,54.18025 C125.86225,54.24025 126.17625,54.55525 126.23725,54.95525 L127.18225,61.15725 C127.34225,62.20425 128.85225,62.20425 129.01225,61.15725 L129.95725,54.95525 C130.01725,54.55525 130.33225,54.24125 130.73225,54.18025 L136.93225,53.23525 C137.98025,53.07525 137.98025,51.56525 136.93225,51.40725 L130.73225,50.46225 C130.33225,50.40225 130.01825,50.08725 129.95725,49.68725 L129.01225,43.48525 Z M52.52225,7.78525 C52.68225,6.73825 54.19225,6.73825 54.35225,7.78525 L54.65225,9.82525 C54.71225,10.22525 55.02725,10.53925 55.42725,10.60025 L57.46725,10.90025 C58.51425,11.06025 58.51425,12.57025 57.46725,12.73025 L55.42725,13.03025 C55.02725,13.09025 54.71325,13.40525 54.65225,13.80525 L54.35225,15.84525 C54.19225,16.89225 52.68225,16.89225 52.52225,15.84525 L52.22225,13.80525 C52.16225,13.40525 51.84725,13.09125 51.44725,13.03025 L49.40725,12.73025 C48.36025,12.57025 48.36025,11.06025 49.40725,10.90025 L51.44725,10.60025 C51.84725,10.54025 52.16125,10.22525 52.22225,9.82525 L52.52225,7.78525 Z" id="Shape"></path>
        </g>
    </g>
</svg>