<?xml version="1.0" ?><svg viewBox="0 0 50 50" xmlns="http://www.w3.org/2000/svg"><defs><style>.a{fill:#c0dceb;}.a,.d,.e{stroke:#45413c;}.a,.d,.e,.h,.i,.j{stroke-linecap:round;stroke-linejoin:round;stroke-width:1.25px;}.b{fill:#adc4d9;}.c{fill:#8ca4b8;}.d,.h,.j{fill:none;}.e{fill:#e8f4fa;}.f,.i{fill:#fff;}.g{fill:#daedf7;}.h,.i{stroke:#adc4d9;}.j{stroke:#daedf7;}</style></defs><title/><path class="a" d="M37,19.126c-.266-1.647-1-7-5-7H18c-4,0-4.734,5.353-5,7L11.17,40.173a4.876,4.876,0,0,0,1.315,3.8A17.27,17.27,0,0,0,25,48.873a17.27,17.27,0,0,0,12.515-4.9,4.876,4.876,0,0,0,1.315-3.8Z"/><path class="b" d="M33.517,5.126c-.655-2.109-3.806-4-8.5-4s-7.795,1.907-8.5,4c-.507,1.507-.648,6.493,0,8,.873,2.03,3.806,4,8.5,4s7.686-1.946,8.5-4C34.114,11.619,33.985,6.633,33.517,5.126Z"/><path class="c" d="M33.517,10.126c-.814,2.054-3.806,4-8.5,4s-7.627-1.97-8.5-4a7.686,7.686,0,0,1-.391-2.249,15.347,15.347,0,0,0,.391,5.249c.873,2.03,3.806,4,8.5,4s7.686-1.946,8.5-4a16.588,16.588,0,0,0,.36-5.249A8.229,8.229,0,0,1,33.517,10.126Z"/><path class="d" d="M33.517,5.126c-.655-2.109-3.806-4-8.5-4s-7.795,1.907-8.5,4c-.507,1.507-.648,6.493,0,8,.873,2.03,3.806,4,8.5,4s7.686-1.946,8.5-4C34.114,11.619,33.985,6.633,33.517,5.126Z"/><ellipse class="e" cx="25.017" cy="5.126" rx="8.5" ry="4"/><ellipse class="b" cx="22.963" cy="6.21" rx="1.25" ry="0.833"/><ellipse class="b" cx="27.379" cy="6.21" rx="1.25" ry="0.833"/><ellipse class="b" cx="20.879" cy="3.793" rx="1.25" ry="0.833"/><ellipse class="b" cx="24.879" cy="3.793" rx="1.25" ry="0.833"/><ellipse class="b" cx="28.879" cy="3.793" rx="1.25" ry="0.833"/><path class="f" d="M35,22.126c0-1.656-4.477-3-10-3s-10,1.344-10,3L13.515,38.532a4.165,4.165,0,0,0,1.044,3.156C17.074,44.426,21.33,45.782,25,45.757c3.67.025,7.926-1.331,10.441-4.069a4.165,4.165,0,0,0,1.044-3.156Z"/><path class="g" d="M35.441,38.688C32.926,41.426,28.67,42.782,25,42.757c-3.67.025-7.926-1.331-10.441-4.069a4,4,0,0,1-.9-1.714l-.141,1.558a4.165,4.165,0,0,0,1.044,3.156C17.074,44.426,21.33,45.782,25,45.757c3.67.025,7.926-1.331,10.441-4.069a4.165,4.165,0,0,0,1.044-3.156l-.141-1.558A4,4,0,0,1,35.441,38.688Z"/><path class="h" d="M35,22.126c0-1.656-4.477-3-10-3s-10,1.344-10,3L13.515,38.532a4.165,4.165,0,0,0,1.044,3.156C17.074,44.426,21.33,45.782,25,45.757c3.67.025,7.926-1.331,10.441-4.069a4.165,4.165,0,0,0,1.044-3.156Z"/><ellipse class="i" cx="25" cy="22.126" rx="10" ry="3"/><line class="j" x1="20.879" x2="19.879" y1="21.126" y2="40.126"/><line class="j" x1="29.121" x2="30.121" y1="21.126" y2="40.126"/></svg>