<?xml version="1.0" encoding="UTF-8"?>
<svg width="169px" height="170px" viewBox="0 0 169 170" version="1.1" xmlns="http://www.w3.org/2000/svg" xmlns:xlink="http://www.w3.org/1999/xlink">
    <!-- Generator: Sketch 53.2 (72643) - https://sketchapp.com -->
    <title>Slice</title>
    <desc>Created with Sketch.</desc>
    <g id="Page-1" stroke="none" stroke-width="1" fill="none" fill-rule="evenodd">
        <g id="iconfinder_014_108_ticket_show_party_cinema_theater_business_2514594" transform="translate(84.500000, 86.000000) rotate(-21.000000) translate(-84.500000, -86.000000) translate(11.000000, 42.000000)" fill-rule="nonzero">
            <path d="M124.722222,44.5 C124.722174,39.6846483 126.647847,35.0665071 130.075606,31.6615393 C133.503365,28.2565715 138.152417,26.3437018 143,26.34375 L143,3 L2,3 L2,26.34375 C12.0945378,26.3437502 20.2777774,34.4725802 20.2777774,44.5 C20.2777774,54.5274198 12.0945378,62.6562498 2,62.65625 L2,86 L143,86 L143,62.65625 C132.905498,62.6561641 124.722309,54.5273844 124.722222,44.5 Z" id="Path" fill="#FFFAD1"></path>
            <rect id="Rectangle" fill="#750000" opacity="0.2" x="2" y="78" width="141" height="9"></rect>
            <rect id="Rectangle" fill="#FFFFFF" opacity="0.75" x="2" y="1" width="141" height="9"></rect>
            <path d="M144.375,87.9999999 L2.62500009,87.9999999 C1.9287513,88.0001785 1.26096705,87.7275475 0.768644799,87.2421205 C0.276322544,86.7566936 -0.000181006421,86.098262 8.88998615e-08,85.4117646 L8.88998615e-08,62.117647 C-0.000181006421,61.4311496 0.276322544,60.7727181 0.768644799,60.2872911 C1.26096705,59.8018641 1.9287513,59.5292332 2.62500009,59.5294117 C11.3234849,59.5294117 18.3750001,52.5766573 18.3750001,44 C18.3750001,35.4233427 11.3234849,28.4705883 2.62500009,28.4705883 C1.9287513,28.4707668 1.26096705,28.1981359 0.768644799,27.7127089 C0.276322544,27.2272819 -0.000181006421,26.5688504 8.88998627e-08,25.882353 L8.88998627e-08,2.58823538 C-0.000181006421,1.90173797 0.276322544,1.24330645 0.768644799,0.757879465 C1.26096705,0.27245248 1.9287513,-0.000178471317 2.62500009,8.76547654e-08 L144.375,8.76547654e-08 C145.071249,-0.000178471317 145.739033,0.27245248 146.231355,0.757879465 C146.723677,1.24330645 147.000181,1.90173797 147,2.58823538 L147,25.882353 C147.000181,26.5688504 146.723677,27.2272819 146.231355,27.7127089 C145.739033,28.1981359 145.071249,28.4707668 144.375,28.4705883 C135.676515,28.4705883 128.625,35.4233427 128.625,44 C128.625,52.5766573 135.676515,59.5294117 144.375,59.5294117 C145.071249,59.5292332 145.739033,59.8018641 146.231355,60.2872911 C146.723677,60.7727181 147.000181,61.4311496 147,62.117647 L147,85.4117646 C147.000181,86.098262 146.723677,86.7566936 146.231355,87.2421205 C145.739033,87.7275475 145.071249,88.0001785 144.375,87.9999999 Z M5.25000008,82.8235293 L141.75,82.8235293 L141.75,64.5454117 C131.249627,63.2402035 123.374706,54.435256 123.374706,44 C123.374706,33.564744 131.249627,24.7597965 141.75,23.4545883 L141.75,5.17647067 L5.25000008,5.17647067 L5.25000008,23.4545883 C15.7503727,24.7597965 23.6252938,33.564744 23.6252938,44 C23.6252938,54.435256 15.7503727,63.2402035 5.25000008,64.5454117 L5.25000008,82.8235293 Z" id="Shape" fill="#6D6DAA"></path>
            <g id="Group" opacity="0.5" transform="translate(36.000000, 0.000000)" fill="#6D6DAA">
                <path d="M3,5.2941173 C2.2042871,5.29429544 1.4411051,5.02230748 0.878451098,4.53802537 C0.315797092,4.05374326 -0.000206966081,3.39686464 -5.08219768e-20,2.71198633 C-0.00627212418,1.27313176 1.3286453,0.0955450172 3,0.0655603052 C3.78782295,0.0508587242 4.54945071,0.309318957 5.11363642,0.782827966 C5.67782212,1.25633697 5.99721438,1.90515375 6,2.58339621 L6,2.71198633 C6.00020697,3.39686464 5.68420291,4.05374326 5.1215489,4.53802537 C4.5588949,5.02230748 3.7957129,5.29429544 3,5.2941173 Z" id="Path"></path>
                <path d="M3,77.5887492 C2.2042871,77.5889273 1.4411051,77.3169394 0.878451098,76.8326573 C0.315797092,76.3483751 -0.000206966081,75.6914965 1.54268417e-15,75.0066182 C-0.0115436974,73.5554689 1.31537399,72.3576088 3,72.2984018 C3.77999112,72.2698302 4.53999674,72.5152475 5.10567116,72.9783549 C5.67134558,73.4414623 5.99413812,74.0825121 6,74.7544473 L6,75.0066182 C6.00020697,75.6914965 5.68420291,76.3483751 5.1215489,76.8326573 C4.5588949,77.3169394 3.7957129,77.5889273 3,77.5887492 L3,77.5887492 Z M3,67.2614906 C2.2042871,67.2616687 1.4411051,66.9896807 0.878451098,66.5053986 C0.315797092,66.0211165 -0.000206966081,65.3642379 1.6807031e-15,64.6793596 C-0.0115436974,63.2282103 1.31537399,62.0303502 3,61.9711432 C3.77999112,61.9425716 4.53999674,62.1879889 5.10567116,62.6510963 C5.67134558,63.1142036 5.99413812,63.7552535 6,64.4271887 L6,64.6793596 C6.00020697,65.3642379 5.68420291,66.0211165 5.1215489,66.5053986 C4.5588949,66.9896807 3.7957129,67.2616687 3,67.2614906 Z M3,56.9329667 C2.2042871,56.9331448 1.4411051,56.6611569 0.878451098,56.1768748 C0.315797092,55.6925927 -0.000206966081,55.035714 1.6807031e-15,54.3508357 C-0.0115436974,52.8996864 1.31537399,51.7018264 3,51.6426193 C3.77999112,51.6140477 4.53999674,51.859465 5.10567116,52.3225724 C5.67134558,52.7856798 5.99413812,53.4267296 6,54.0986648 L6,54.3508357 C6.00020697,55.035714 5.68420291,55.6925927 5.1215489,56.1768748 C4.5588949,56.6611569 3.7957129,56.9331448 3,56.9329667 Z M3,46.6057081 C2.2042871,46.6058862 1.4411051,46.3338983 0.878451098,45.8496162 C0.315797092,45.365334 -0.000206966081,44.7084554 1.54268417e-15,44.0235771 C-0.0115436974,42.5724278 1.31537399,41.3745677 3,41.3153607 C3.77999112,41.2867891 4.53999674,41.5322064 5.10567116,41.9953138 C5.67134558,42.4584212 5.99413812,43.099471 6,43.7714062 L6,44.0235771 C6.00020697,44.7084554 5.68420291,45.365334 5.1215489,45.8496162 C4.5588949,46.3338983 3.7957129,46.6058862 3,46.6057081 L3,46.6057081 Z M3,36.2784495 C2.2042871,36.2786276 1.44110511,36.0066396 0.878451099,35.5223575 C0.315797093,35.0380754 -0.00020696489,34.3811968 1.19129547e-09,33.6963185 C-0.0115112013,32.2451892 1.3153974,31.0473601 3,30.9881537 C3.77999112,30.9595821 4.53999674,31.2049994 5.10567116,31.6681068 C5.67134558,32.1312142 5.99413812,32.7722641 6,33.4441992 L6,33.6963701 C6.00018309,34.381235 5.68416849,35.0380937 5.12151707,35.5223591 C4.55886565,36.0066244 3.7956973,36.2786018 3,36.2784236 L3,36.2784495 Z M3,25.9499256 C2.2042871,25.9501037 1.44110511,25.6781158 0.878451099,25.1938337 C0.315797093,24.7095516 -0.00020696489,24.0526729 1.1912954e-09,23.3677946 C-0.0115112013,21.9166653 1.3153974,20.7188363 3,20.6596299 C3.77999112,20.6310583 4.53999674,20.8764756 5.10567116,21.339583 C5.67134558,21.8026903 5.99413812,22.4437402 6,23.1156754 L6,23.3678463 C6.00018309,24.0527112 5.68416849,24.7095699 5.12151707,25.1938352 C4.55886565,25.6781006 3.7956973,25.9500779 3,25.9498998 L3,25.9499256 Z M3,15.622667 C2.2042871,15.6228451 1.4411051,15.3508572 0.878451098,14.8665751 C0.315797092,14.3822929 -0.000206966081,13.7254143 1.61140903e-15,13.040536 C-0.0115436974,11.5893867 1.31537399,10.3915266 3,10.3323196 C3.77999112,10.303748 4.53999674,10.5491653 5.10567116,11.0122727 C5.67134558,11.4753801 5.99413812,12.1164299 6,12.7883651 L6,13.040536 C6.00019901,13.7254098 5.68419143,14.3822818 5.12153829,14.8665584 C4.55888515,15.3508349 3.7957077,15.6228193 3,15.6226412 L3,15.622667 Z" id="Shape"></path>
                <path d="M3,87.7937181 C2.2042871,87.7938962 1.4411051,87.5219083 0.878451098,87.0376261 C0.315797092,86.553344 -0.000206966081,85.8964654 -8.80914265e-20,85.2115871 C-0.00627212418,83.7727325 1.3286453,82.5951458 3,82.5651611 C3.78766361,82.5501789 4.54925657,82.8083739 5.1134715,83.2816694 C5.67768643,83.754965 5.99714844,84.4036205 6,85.0817317 L6,85.2115871 C6.00020697,85.8964654 5.68420291,86.553344 5.1215489,87.0376261 C4.5588949,87.5219083 3.7957129,87.7938962 3,87.7937181 L3,87.7937181 Z" id="Path"></path>
            </g>
        </g>
        <g id="iconfinder_006_089_salt_spice_kitchen_2822195-(1)" transform="translate(96.028232, 78.361291) rotate(-21.000000) translate(-96.028232, -78.361291) translate(71.028232, 48.361291)" fill-rule="nonzero">
            <path d="M41.64925,19 L46.30925,39.71 L46.29925,39.71 C39.43925,38.03 32.57925,33.98 25.70925,33.98 C18.83925,33.98 11.97925,38.03 5.11925,39.71 L4.99925,39.68 L9.64925,19 L41.64925,19 Z" id="Path" fill="#D4EDFF" opacity="0.5"></path>
            <path d="M48.34926,51.68 C48.7502548,53.4580462 48.3212688,55.3219672 47.1833473,56.745828 C46.0454258,58.1696888 44.3219624,58.9990889 42.49926,59 L7.49926,59 C5.67655757,58.9990889 3.95309424,58.1696888 2.81517271,56.745828 C1.67725117,55.3219672 1.24826519,53.4580462 1.64926,51.68 L4.34926,39.68 L4.46926,39.71 C11.32926,38.03 18.18926,33.98 25.05926,33.98 C31.92926,33.98 38.78926,38.03 45.64926,39.71 L45.65926,39.71 L48.34926,51.68 Z" id="Path" fill="#EEF6FF"></path>
            <path d="M20.05308,51.68286 L22.71263,19 L14.46391,19 L8.12748,51.68286 C7.40025,55.43408 9.85832,59 13.17143,59 L22.17015,59 C20.77952,59 19.74785,55.43408 20.05308,51.68286 Z" id="Path" fill="#FFFFFF"></path>
            <path d="M3.86928,42.71 C10.72928,41.03 18.18928,36.98 25.05928,36.98 C31.92928,36.98 39.48928,41.03 46.34928,42.71 L45.65928,39.71 C45.65928,39.71 31.92928,33.98 25.05928,33.98 C18.18928,33.98 11.32928,38.03 4.46928,39.71 L3.86928,42.71 Z" id="Path" fill="#FFFFFF" opacity="0.75"></path>
            <g id="Group" opacity="0.2" transform="translate(1.000000, 19.000000)" fill="#2C4B75">
                <path d="M47.37352,32.68286 L39.99925,0 L32.99925,0 L35.6588,32.68286 C35.964,36.43408 34.93236,40 33.54173,40 L42.32963,40 C45.64274,40 48.10075,36.43408 47.37352,32.68286 Z" id="Path"></path>
                <path d="M47.31,32.49182 C46.6291683,35.1447302 44.2381301,36.99978 41.49925,37 L6.49925,37 C3.76038463,36.9997496 1.36936858,35.1447106 0.68852,32.49182 L0.64552,32.68282 C0.245418267,34.4610887 0.675344206,36.3248143 1.81398887,37.7481235 C2.95263354,39.1714328 4.67652652,39.9999872 6.49925,40 L41.49925,40 C43.3219635,39.9999868 45.0458469,39.1714368 46.1844856,37.7481356 C47.3231242,36.3248343 47.7530485,34.4611192 47.35295,32.68286 L47.31,32.49182 Z" id="Path"></path>
                <polygon id="Path" points="40.674 3 39.999 0 7.999 0 7.325 3"></polygon>
            </g>
            <path d="M47.11926,13.88 C47.9780595,14.7372831 48.2354192,16.0277028 47.771195,17.1488481 C47.3069708,18.2699933 46.2127138,19.0007593 44.99926,19 L4.99926,19 C3.34240575,19 1.99926,17.6568542 1.99926,16 C1.99926,14.3431458 3.34240575,13 4.99926,13 L8.04926,13 C10.5821497,5.80976788 17.3759426,1.00000502 24.99926,1.00000502 C32.6225774,1.00000502 39.4163703,5.80976788 41.94926,13 L44.99926,13 C45.7947991,12.9999099 46.5576389,13.3165604 47.11926,13.88 Z" id="Path" fill="#CED8EE"></path>
            <g id="Group" opacity="0.75" transform="translate(10.000000, 1.000000)" fill="#FFFFFF">
                <path d="M10.99925,13 C10.99925,5.82031 13.68553,0 16.99925,0 C9.81954825,-9.99200722e-16 3.99925,5.82029825 3.99925,13 C3.99925,18 10.99925,16 10.99925,13 Z" id="Path"></path>
                <rect id="Rectangle" x="0.99925" y="11.99999" width="13" height="6" rx="3"></rect>
            </g>
            <g id="Group" opacity="0.2" transform="translate(23.000000, 1.000000)" fill="#2C4B75">
                <path d="M21.99925,12 L9.99925,12 C10.99925,12 11.99925,13.34314 11.99925,15 C11.99925,16.65686 10.99925,18 9.99925,18 L21.99925,18 C23.6561042,18 24.99925,16.6568542 24.99925,15 C24.99925,13.3431458 23.6561042,12 21.99925,12 Z" id="Path"></path>
                <path d="M12.52751,12 L15.99925,14 L18.94925,12 C16.4136507,4.81181349 9.62153829,0.0032383384 1.99925,2.22044605e-16 C1.6121,2.22044605e-16 1.23033,0.02179 0.84925,0.0459 C6.26335,0.50983 10.79216,5.35565 12.52751,12 Z" id="Path"></path>
                <path d="M21.99925,18.0000027 C22.795225,18.0010634 23.5589048,17.6853344 24.1217446,17.1224946 C24.6845844,16.5596548 25.0003134,15.795975 24.9992527,15 C24.99925,15.7956495 24.6831795,16.5587112 24.1205703,17.1213203 C23.5579612,17.6839295 22.7948995,18 21.99925,18.0000027 Z" id="Path"></path>
            </g>
            <path d="M42.499,60 L7.499,60 C5.37244058,59.9999506 3.36120853,59.0332217 2.03282714,57.372602 C0.704445744,55.7119823 0.202968237,53.5375538 0.6699,51.46289 L8.02342,18.78027 C8.12613238,18.3240416 8.53135254,17.9999461 8.999,18 L40.999,18 C41.4666512,17.9999414 41.8718768,18.324038 41.97459,18.78027 L49.32811,51.46289 C49.7955504,53.5376162 49.2942663,55.7123291 47.9657758,57.3730827 C46.6372854,59.0338363 44.6257321,60.0004361 42.499,60 L42.499,60 Z M9.79883,20 L2.62109,51.90234 C2.28738327,53.3842331 2.6455168,54.9374683 3.59440403,56.1236304 C4.54329126,57.3097924 5.97999792,58.0002077 7.499,58 L42.499,58 C44.0180515,58.0003301 45.4548464,57.3099515 46.4037752,56.1237594 C47.352704,54.9375673 47.7108103,53.3842605 47.377,51.90234 L40.19922,20 L9.79883,20 Z" id="Shape" fill="#6D6DAA"></path>
            <path d="M45.65039,40.709 C45.5701107,40.7092247 45.4901002,40.6997153 45.41211,40.68068 C42.7935616,39.9815785 40.2173711,39.132511 37.69629,38.13768 C33.52344,36.58299 29.20899,34.97557 25.05762,34.97557 C20.9043,34.97557 16.58887,36.58397 12.41407,38.13866 C9.89507503,39.1325681 7.32118824,39.981293 4.70507,40.68066 C4.35778818,40.7661595 3.99127935,40.6597721 3.74375135,40.4016157 C3.49622335,40.1434593 3.40532951,39.7728041 3.50534523,39.4294214 C3.60536095,39.0860387 3.8810721,38.822163 4.22851,38.7373 C6.76929954,38.0562407 9.26913372,37.2306775 11.71581,36.26464 C16.05663,34.64745 20.54394,32.97558 25.05761,32.97558 C29.56933,32.97558 34.05561,34.64648 38.39452,36.26269 C40.8426644,37.2298107 43.3441509,38.0560315 45.88671,38.7373 C46.3782781,38.8572763 46.702789,39.3255012 46.6425701,39.8279026 C46.5823511,40.3303041 46.1563774,40.7085741 45.65038,40.70898 L45.65039,40.709 Z" id="Path" fill="#6D6DAA"></path>
            <path d="M44.999,20 L4.999,20 C2.789861,20 0.999,18.209139 0.999,16 C0.999,13.790861 2.789861,12 4.999,12 L7.35349,12 C10.21576,4.75795224 17.212331,-2.58093426e-06 24.99949,-2.58093426e-06 C32.786649,-2.58093426e-06 39.78322,4.75795224 42.64549,12 L44.999,12 C47.208139,12 48.999,13.790861 48.999,16 C48.999,18.209139 47.208139,20 44.999,20 L44.999,20 Z M4.999,14 C3.8944305,14 2.999,14.8954305 2.999,16 C2.999,17.1045695 3.8944305,18 4.999,18 L44.999,18 C46.1035695,18 46.999,17.1045695 46.999,16 C46.999,14.8954305 46.1035695,14 44.999,14 L41.9531,14 C41.5294941,14.000401 41.1517493,13.7334407 41.01072,13.334 C38.6174675,6.54267879 32.2001637,2.00001592 24.99949,2.00001592 C17.7988163,2.00001592 11.3815125,6.54267879 8.98826,13.334 C8.84699711,13.7332552 8.469409,14.0001104 8.0459,14 L4.999,14 Z" id="Shape" fill="#6D6DAA"></path>
            <path d="M30.09886,14.02148 C29.2704329,14.02148 28.59886,13.3499071 28.59886,12.52148 C28.59886,11.6930529 29.2704329,11.02148 30.09886,11.02148 C30.9272871,11.02148 31.59886,11.6930529 31.59886,12.52148 C31.5979561,13.3495324 30.9269124,14.0205761 30.09886,14.02148 L30.09886,14.02148 Z" id="Path" fill="#6D6DAA"></path>
            <path d="M20.09886,14.02148 C19.2704329,14.02148 18.59886,13.3499071 18.59886,12.52148 C18.59886,11.6930529 19.2704329,11.02148 20.09886,11.02148 C20.9272871,11.02148 21.59886,11.6930529 21.59886,12.52148 C21.5979561,13.3495324 20.9269124,14.0205761 20.09886,14.02148 L20.09886,14.02148 Z" id="Path" fill="#6D6DAA"></path>
            <path d="M25.09886,9.0293 C24.2705631,9.02929982 23.5990443,8.35793 23.5988604,7.52963311 C23.5986764,6.70133622 24.2698969,6.02966822 25.0981938,6.02930015 C25.9264906,6.02893208 26.5983078,6.70000327 26.59886,7.5283 C26.5980453,8.35655142 25.9271107,9.02793328 25.09886,9.0293 L25.09886,9.0293 Z" id="Path" fill="#6D6DAA"></path>
        </g>
    </g>
</svg>