<?xml version="1.0" encoding="UTF-8" standalone="no"?>
<!-- Created with Inkscape (http://www.inkscape.org/) -->

<svg
   xmlns:dc="http://purl.org/dc/elements/1.1/"
   xmlns:cc="http://creativecommons.org/ns#"
   xmlns:rdf="http://www.w3.org/1999/02/22-rdf-syntax-ns#"
   xmlns:svg="http://www.w3.org/2000/svg"
   xmlns="http://www.w3.org/2000/svg"
   xmlns:sodipodi="http://sodipodi.sourceforge.net/DTD/sodipodi-0.dtd"
   xmlns:inkscape="http://www.inkscape.org/namespaces/inkscape"
   width="768px"
   height="768px"
   viewBox="0 0 768 768"
   version="1.1"
   id="SVGRoot"
   inkscape:version="0.92.5 (2060ec1f9f, 2020-04-08)"
   sodipodi:docname="ticket-bg.svg">
  <defs
     id="defs278" />
  <sodipodi:namedview
     id="base"
     pagecolor="#ffffff"
     bordercolor="#666666"
     borderopacity="1.0"
     inkscape:pageopacity="0.0"
     inkscape:pageshadow="2"
     inkscape:zoom="0.35"
     inkscape:cx="384"
     inkscape:cy="384"
     inkscape:document-units="px"
     inkscape:current-layer="layer1"
     showgrid="false"
     inkscape:window-width="1528"
     inkscape:window-height="836"
     inkscape:window-x="72"
     inkscape:window-y="27"
     inkscape:window-maximized="1" />
  <metadata
     id="metadata281">
    <rdf:RDF>
      <cc:Work
         rdf:about="">
        <dc:format>image/svg+xml</dc:format>
        <dc:type
           rdf:resource="http://purl.org/dc/dcmitype/StillImage" />
        <dc:title></dc:title>
      </cc:Work>
    </rdf:RDF>
  </metadata>
  <g
     inkscape:label="Layer 1"
     inkscape:groupmode="layer"
     id="layer1">
    <path
       d="M 661.52624,444.19911 C 669.07085,356.09896 735.23869,218.08512 876.59349,110.3744 A 3477.6731,1975.9463 0 0 0 280.56213,475.83238 c -11.27361,7.88366 -24.10849,7.39096 -40.15189,6.75039 6.93761,2.31583 16.82403,4.82873 23.84836,6.30693 a 179.07823,101.74877 0 0 0 89.75586,2.56222 c 35.9026,-31.04199 72.32524,-61.34492 109.3551,-91.00728 A 942.13358,535.30201 0 0 0 391.39114,485.884 C 481.147,469.03271 567.17403,431.19096 661.43956,444.19911 Z m -120.19493,64.74477 c -7.54458,88.14935 -73.71267,226.11379 -215.06726,333.82463 A 3477.4997,1975.8477 0 0 0 922.29552,477.31059 c 11.2736,-7.88372 24.1082,-7.39096 40.15141,-6.75039 -6.9376,-2.31593 -16.82361,-4.82874 -23.84811,-6.30694 a 179.16497,101.79804 0 0 0 -89.75593,-2.56228 5304.5313,3013.9316 0 0 1 -109.35487,91.00728 942.82733,535.69619 0 0 0 71.97819,-85.43939 c -89.75587,16.85139 -175.78269,54.69305 -270.04819,41.68501 z"
       id="path2"
       style="fill:#f9f9f9;stroke-width:6.53680658"
       inkscape:connector-curvature="0" />
  </g>
</svg>
