<?xml version="1.0" encoding="UTF-8"?>
<svg width="168px" height="234px" viewBox="0 0 168 234" version="1.1" xmlns="http://www.w3.org/2000/svg" xmlns:xlink="http://www.w3.org/1999/xlink">
    <!-- Generator: Sketch 53.2 (72643) - https://sketchapp.com -->
    <title>lottery</title>
    <desc>Created with Sketch.</desc>
    <g id="Page-1" stroke="none" stroke-width="1" fill="none" fill-rule="evenodd" opacity="0.1">
        <g id="lottery" transform="translate(112.359375, 121.864691) rotate(-24.000000) translate(-112.359375, -121.864691) translate(-2.640625, 29.320312)" fill-rule="nonzero">
            <g id="iconfinder_014_108_ticket_show_party_cinema_theater_business_2514594" transform="translate(115.000000, 92.544379) rotate(-21.000000) translate(-115.000000, -92.544379) translate(14.970414, 32.662722)">
                <path d="M169.740302,60.5621302 C169.740237,54.008693 172.360975,47.7236487 177.025973,43.0896689 C181.69097,38.455689 188.018082,35.8523752 194.615385,35.8524408 L194.615385,4.08284024 L2.72189349,4.08284024 L2.72189349,35.8524408 C16.4600219,35.8524411 27.5969752,46.9153458 27.5969752,60.5621302 C27.5969752,74.2089145 16.4600219,85.2718193 2.72189349,85.2718195 L2.72189349,117.04142 L194.615385,117.04142 L194.615385,85.2718195 C180.877305,85.2717026 169.740421,74.2088663 169.740302,60.5621302 Z" id="Path" fill="#FFFAD1"></path>
                <rect id="Rectangle" fill="#750000" opacity="0.2" x="2.72189349" y="106.153846" width="191.893491" height="12.2485207"></rect>
                <rect id="Rectangle" fill="#FFFFFF" opacity="0.75" x="2.72189349" y="1.36094675" width="191.893491" height="12.2485207"></rect>
                <path d="M196.486686,119.763313 L3.57248533,119.763313 C2.6249278,119.763557 1.716109,119.39252 1.04608464,118.73188 C0.376060267,118.07124 -0.0002463401,117.175149 1.20987977e-07,116.240863 L1.20987977e-07,84.5388095 C-0.0002463401,83.6045231 0.376060267,82.7084329 1.04608464,82.0477926 C1.716109,81.3871523 2.6249278,81.0161162 3.57248533,81.0163591 C15.4106599,81.0163591 25.0073966,71.5540306 25.0073966,59.8816568 C25.0073966,48.209283 15.4106599,38.7469545 3.57248533,38.7469545 C2.6249278,38.7471974 1.716109,38.3761613 1.04608464,37.715521 C0.376060267,37.0548807 -0.0002463401,36.1587905 1.20987979e-07,35.2245041 L1.20987979e-07,3.52245052 C-0.0002463401,2.5881641 0.376060267,1.69207387 1.04608464,1.03143359 C1.716109,0.370793316 2.6249278,-0.000242889958 3.57248533,1.19293468e-07 L196.486686,1.19293468e-07 C197.434244,-0.000242889958 198.343063,0.370793316 199.013087,1.03143359 C199.683111,1.69207387 200.059418,2.5881641 200.059172,3.52245052 L200.059172,35.2245041 C200.059418,36.1587905 199.683111,37.0548807 199.013087,37.715521 C198.343063,38.3761613 197.434244,38.7471974 196.486686,38.7469545 C184.648512,38.7469545 175.051775,48.209283 175.051775,59.8816568 C175.051775,71.5540306 184.648512,81.0163591 196.486686,81.0163591 C197.434244,81.0161162 198.343063,81.3871523 199.013087,82.0477926 C199.683111,82.7084329 200.059418,83.6045231 200.059172,84.5388095 L200.059172,116.240863 C200.059418,117.175149 199.683111,118.07124 199.013087,118.73188 C198.343063,119.39252 197.434244,119.763557 196.486686,119.763313 Z M7.14497052,112.718413 L192.914201,112.718413 L192.914201,87.842868 C178.623753,86.0665491 167.906405,74.0834845 167.906405,59.8816568 C167.906405,45.6798291 178.623753,33.6967645 192.914201,31.9204456 L192.914201,7.04490091 L7.14497052,7.04490091 L7.14497052,31.9204456 C21.4354185,33.6967645 32.1527667,45.6798291 32.1527667,59.8816568 C32.1527667,74.0834845 21.4354185,86.0665491 7.14497052,87.842868 L7.14497052,112.718413 Z" id="Shape" fill="#6D6DAA"></path>
                <g id="Group" opacity="0.5" transform="translate(48.994083, 0.000000)" fill="#6D6DAA">
                    <path d="M4.08284024,7.20501171 C2.99991736,7.20525415 1.9612673,6.83509302 1.19552516,6.17601086 C0.429783025,5.5169287 -0.000281669814,4.62295188 -7.45388994e-20,3.69086897 C-0.00853602699,1.73266453 1.8082155,0.13003168 4.08284024,0.089224084 C5.15502532,0.0692160152 6.19156014,0.420966628 6.95938684,1.06538717 C7.72721354,1.70980771 8.16188939,2.5928128 8.16568047,3.51586466 L8.16568047,3.69086897 C8.16596215,4.62295188 7.73589745,5.5169287 6.97015531,6.17601086 C6.20441318,6.83509302 5.16576312,7.20525415 4.08284024,7.20501171 Z" id="Path"></path>
                    <path d="M4.08284024,105.594156 C2.99991736,105.594398 1.9612673,105.224237 1.19552516,104.565155 C0.429783025,103.906073 -0.000281669814,103.012096 2.09954395e-15,102.080013 C-0.0157103574,100.105076 1.79015395,98.4748522 4.08284024,98.3942746 C5.14436661,98.3553902 6.17869379,98.6893901 6.94854655,99.3196546 C7.71839931,99.9499191 8.15770277,100.822354 8.16568047,101.736822 L8.16568047,102.080013 C8.16596215,103.012096 7.73589745,103.906073 6.97015531,104.565155 C6.20441318,105.224237 5.16576312,105.594398 4.08284024,105.594156 L4.08284024,105.594156 Z M4.08284024,91.5393067 C2.99991736,91.5395491 1.9612673,91.1693879 1.19552516,90.5103058 C0.429783025,89.8512236 -0.000281669814,88.9572468 2.1019563e-15,88.025164 C-0.0157103574,86.050227 1.79015395,84.4200032 4.08284024,84.3394257 C5.14436661,84.3005412 6.17869379,84.6345411 6.94854655,85.2648056 C7.71839931,85.89507 8.15770277,86.7675048 8.16568047,87.6819728 L8.16568047,88.025164 C8.16596215,88.9572468 7.73589745,89.8512236 6.97015531,90.5103058 C6.20441318,91.1693879 5.16576312,91.5395491 4.08284024,91.5393067 Z M4.08284024,77.4827357 C2.99991736,77.4829781 1.9612673,77.1128171 1.19552516,76.4537349 C0.429783025,75.7946528 -0.000281669814,74.9006759 2.1019563e-15,73.968593 C-0.0157103574,71.993656 1.79015395,70.3634324 4.08284024,70.2828547 C5.14436661,70.2439702 6.17869379,70.5779701 6.94854655,71.2082346 C7.71839931,71.8384991 8.15770277,72.7109338 8.16568047,73.6254018 L8.16568047,73.968593 C8.16596215,74.9006759 7.73589745,75.7946528 6.97015531,76.4537349 C6.20441318,77.1128171 5.16576312,77.4829781 4.08284024,77.4827357 Z M4.08284024,63.4278868 C2.99991736,63.4281291 1.9612673,63.0579681 1.19552516,62.398886 C0.429783025,61.7398037 -0.000281669814,60.8458269 2.09954395e-15,59.913744 C-0.0157103574,57.9388071 1.79015395,56.3085833 4.08284024,56.2280057 C5.14436661,56.1891213 6.17869379,56.5231211 6.94854655,57.1533856 C7.71839931,57.7836502 8.15770277,58.6560848 8.16568047,59.5705528 L8.16568047,59.913744 C8.16596215,60.8458269 7.73589745,61.7398037 6.97015531,62.398886 C6.20441318,63.0579681 5.16576312,63.4281291 4.08284024,63.4278868 L4.08284024,63.4278868 Z M4.08284024,49.3730378 C2.99991736,49.3732802 1.96126731,49.003119 1.19552516,48.3440368 C0.429783026,47.6849547 -0.000281668193,46.7909779 1.62128958e-09,45.858895 C-0.0156661319,43.8839853 1.79018581,42.2538037 4.08284024,42.1732269 C5.14436661,42.1343425 6.17869379,42.4683424 6.94854655,43.0986069 C7.71839931,43.7288714 8.15770277,44.6013062 8.16568047,45.5157741 L8.16568047,45.8589652 C8.16592965,46.7910299 7.73585061,47.6849796 6.97011199,48.344039 C6.20437337,49.0030983 5.16574189,49.3732451 4.08284024,49.3730025 L4.08284024,49.3730378 Z M4.08284024,35.3164668 C2.99991736,35.3167092 1.96126731,34.9465481 1.19552516,34.287466 C0.429783026,33.6283838 -0.000281668193,32.7344069 1.62128958e-09,31.802324 C-0.0156661319,29.8274143 1.79018581,28.1972328 4.08284024,28.1166561 C5.14436661,28.0777717 6.17869379,28.4117715 6.94854655,29.042036 C7.71839931,29.6723004 8.15770277,30.5447352 8.16568047,31.4592032 L8.16568047,31.8023944 C8.16592965,32.734459 7.73585061,33.6284087 6.97011199,34.287468 C6.20437337,34.9465274 5.16574189,35.3166741 4.08284024,35.3164317 L4.08284024,35.3164668 Z M4.08284024,21.2616178 C2.99991736,21.2618602 1.9612673,20.8916991 1.19552516,20.232617 C0.429783025,19.5735347 -0.000281669814,18.6795579 2.10073658e-15,17.747475 C-0.0157103574,15.7725381 1.79015395,14.1423143 4.08284024,14.0617367 C5.14436661,14.0228523 6.17869379,14.3568522 6.94854655,14.9871167 C7.71839931,15.6173812 8.15770277,16.4898158 8.16568047,17.4042839 L8.16568047,17.747475 C8.16595132,18.6795518 7.73588183,19.5735196 6.97014087,20.2325943 C6.20439991,20.8916688 5.16575604,21.2618251 4.08284024,21.2615827 L4.08284024,21.2616178 Z" id="Shape"></path>
                    <path d="M4.08284024,119.482575 C2.99991736,119.482817 1.9612673,119.112656 1.19552516,118.453574 C0.429783025,117.794492 -0.000281669814,116.900515 -1.18584613e-19,115.968432 C-0.00853602699,114.010228 1.8082155,112.407595 4.08284024,112.366787 C5.15480846,112.346397 6.19129592,112.697787 6.9591624,113.341917 C7.72702887,113.986047 8.16179965,114.868833 8.16568047,115.791706 L8.16568047,115.968432 C8.16596215,116.900515 7.73589745,117.794492 6.97015531,118.453574 C6.20441318,119.112656 5.16576312,119.482817 4.08284024,119.482575 L4.08284024,119.482575 Z" id="Path"></path>
                </g>
            </g>
            <g id="iconfinder_006_089_salt_spice_kitchen_2822195-(1)" transform="translate(130.689310, 82.148503) rotate(-21.000000) translate(-130.689310, -82.148503) translate(96.665641, 41.320100)">
                <path d="M56.6824112,25.8579882 L63.0244231,54.0431953 L63.0108136,54.0431953 C53.6747189,51.7568047 44.3386243,46.2449704 34.9889201,46.2449704 C25.639216,46.2449704 16.3031213,51.7568047 6.96702663,54.0431953 L6.80371302,54.0023669 L13.1321154,25.8579882 L56.6824112,25.8579882 Z" id="Path" fill="#D4EDFF" opacity="0.5"></path>
                <path d="M65.800768,70.3337278 C66.3465006,72.753554 65.7626735,75.2902512 64.214023,77.2280499 C62.6653724,79.1658487 60.3198305,80.294618 57.8392296,80.295858 L10.2060935,80.295858 C7.72549255,80.294618 5.37995074,79.1658487 3.83130014,77.2280499 C2.28264952,75.2902512 1.69882245,72.753554 2.24455503,70.3337278 L5.91911124,54.0023669 L6.08242485,54.0431953 C15.4185195,51.7568047 24.7546142,46.2449704 34.1043183,46.2449704 C43.4540225,46.2449704 52.7901172,51.7568047 62.1262118,54.0431953 L62.1398213,54.0431953 L65.800768,70.3337278 Z" id="Path" fill="#EEF6FF"></path>
                <path d="M27.291174,70.3376201 L30.9106799,25.8579882 L19.6846112,25.8579882 L11.0610675,70.3376201 C10.0713462,75.4428308 13.4166485,80.295858 17.9256148,80.295858 L30.1723935,80.295858 C28.2798201,80.295858 26.8757722,75.4428308 27.291174,70.3376201 Z" id="Path" fill="#FFFFFF"></path>
                <path d="M5.26588402,58.1260355 C14.6019787,55.839645 24.7546414,50.3278107 34.1043456,50.3278107 C43.4540497,50.3278107 53.7428071,55.839645 63.0789018,58.1260355 L62.1398485,54.0431953 C62.1398485,54.0431953 43.4540497,46.2449704 34.1043456,46.2449704 C24.7546414,46.2449704 15.4185467,51.7568047 6.08245207,54.0431953 L5.26588402,58.1260355 Z" id="Path" fill="#FFFFFF" opacity="0.75"></path>
                <g id="Group" opacity="0.2" transform="translate(1.360947, 25.857988)" fill="#2C4B75">
                    <path d="M64.4728379,44.479632 L54.4368491,0 L44.9102219,0 L48.5297278,44.479632 C48.9450888,49.5848426 47.5410817,54.4378698 45.6485083,54.4378698 L57.6083722,54.4378698 C62.1173385,54.4378698 65.4625592,49.5848426 64.4728379,44.479632 Z" id="Path"></path>
                    <path d="M64.3863905,44.2196367 C63.4598148,47.8301062 60.2057392,50.3547302 56.4782692,50.3550296 L8.84513314,50.3550296 C5.11768322,50.3546888 1.86363771,47.8300795 0.937039053,44.2196367 L0.878518343,44.4795775 C0.334001192,46.8997065 0.919107499,49.4361378 2.46874225,51.3731858 C4.01837701,53.310234 6.36450355,54.4378524 8.84513314,54.4378698 L56.4782692,54.4378698 C58.9588852,54.4378519 61.3049987,53.3102394 62.8546254,51.3732023 C64.4042519,49.436165 64.9893559,46.899748 64.4448432,44.479632 L64.3863905,44.2196367 Z" id="Path"></path>
                    <polygon id="Path" points="55.3551479 4.08284024 54.4365089 0 10.886213 0 9.96893491 4.08284024"></polygon>
                </g>
                <path d="M64.1268036,18.8899408 C65.2955839,20.0566575 65.6458368,21.81285 65.0140524,23.338669 C64.382268,24.8644879 62.8930424,25.8590215 61.2415964,25.8579882 L6.80372663,25.8579882 C4.54883623,25.8579882 2.72088639,24.0300383 2.72088639,21.7751479 C2.72088639,19.5202576 4.54883623,17.6923077 6.80372663,17.6923077 L10.9546142,17.6923077 C14.4017422,7.90678469 23.6477325,1.36095358 34.0226615,1.36095358 C44.3975905,1.36095358 53.6435809,7.90678469 57.0907089,17.6923077 L61.2415964,17.6923077 C62.3242828,17.6921851 63.3624671,18.1231295 64.1268036,18.8899408 Z" id="Path" fill="#CED8EE"></path>
                <g id="Group" opacity="0.75" transform="translate(13.609467, 1.360947)" fill="#FFFFFF">
                    <path d="M14.9693935,17.6923077 C14.9693935,7.92113195 18.6252775,0 23.135074,0 C13.3638822,-1.35985897e-15 5.44276627,7.92111596 5.44276627,17.6923077 C5.44276627,24.4970414 14.9693935,21.7751479 14.9693935,17.6923077 Z" id="Path"></path>
                    <rect id="Rectangle" x="1.35992604" y="16.3313473" width="17.6923077" height="8.16568047" rx="3"></rect>
                </g>
                <g id="Group" opacity="0.2" transform="translate(31.301775, 1.360947)" fill="#2C4B75">
                    <path d="M29.9398077,16.3313609 L13.6084467,16.3313609 C14.9693935,16.3313609 16.3303402,18.159303 16.3303402,20.4142012 C16.3303402,22.6690994 14.9693935,24.4970414 13.6084467,24.4970414 L29.9398077,24.4970414 C32.194698,24.4970414 34.0226479,22.6690915 34.0226479,20.4142012 C34.0226479,18.1593109 32.194698,16.3313609 29.9398077,16.3313609 Z" id="Path"></path>
                    <path d="M17.049274,16.3313609 L21.7741272,19.0532544 L25.7889201,16.3313609 C22.3381045,6.54862191 13.0944012,0.00440720611 2.72087278,2.22044605e-16 C2.19398225,2.22044605e-16 1.67441361,0.0296550296 1.15578402,0.0624674556 C8.5240858,0.693851479 14.687555,7.28875444 17.049274,16.3313609 Z" id="Path"></path>
                    <path d="M29.9398077,24.4970487 C31.0230873,24.4984887 32.0624148,24.0687983 32.8284098,23.3028033 C33.5944048,22.5368083 34.0240952,21.4974808 34.0226552,20.4142012 C34.0226479,21.4970378 33.5924928,22.5355241 32.8268117,23.3012051 C32.0611306,24.0668863 31.0226443,24.4970414 29.9398077,24.4970487 Z" id="Path"></path>
                </g>
                <path d="M57.8388757,81.6568047 L10.2057396,81.6568047 C7.31160552,81.6567375 4.57442581,80.341071 2.76656948,78.081056 C0.958713143,75.821041 0.276228962,72.8617596 0.911698225,70.0382527 L10.9194473,25.5589473 C11.0592334,24.9380448 11.6107165,24.4969681 12.2471598,24.4970414 L55.7974556,24.4970414 C56.433904,24.4969617 56.9853945,24.9380399 57.1251817,25.5589473 L67.1329308,70.0382527 C67.7690923,72.8618445 67.0868713,75.821513 65.2788665,78.0817102 C63.4708618,80.3419074 60.7332449,81.6573982 57.8388757,81.6568047 L57.8388757,81.6568047 Z M13.3356858,27.2189349 L3.56716391,70.6363207 C3.11300682,72.6530983 3.60040748,74.7669687 4.89179247,76.3812721 C6.18317745,77.9955755 8.13845871,78.9351939 10.2057396,78.9349112 L57.8388757,78.9349112 C59.9062239,78.9353605 61.8616253,77.995792 63.1530668,76.3814477 C64.4445084,74.7671034 64.931872,72.6531356 64.477574,70.6363207 L54.7089976,27.2189349 L13.3356858,27.2189349 Z" id="Shape" fill="#6D6DAA"></path>
                <path d="M62.1277497,55.4027811 C62.0184939,55.4030869 61.9096038,55.3901451 61.8034633,55.3642391 C58.2397584,54.4127991 54.7337003,53.2572635 51.3026432,51.9033515 C45.6236166,49.7875012 39.7518799,47.5998882 34.1020864,47.5998882 C28.4496391,47.5998882 22.5765686,49.7888349 16.8948882,51.9046852 C13.4666702,53.2573412 9.96374731,54.4124106 6.4033497,55.3642118 C5.93071764,55.4805721 5.43191864,55.3357845 5.09504622,54.9844474 C4.75817379,54.6331103 4.63447211,54.1286683 4.77058818,53.6613427 C4.90670425,53.1940172 5.28193244,52.8348964 5.75477692,52.7194024 C9.21265618,51.7925169 12.6147974,50.6689694 15.9445935,49.3542438 C21.8522183,47.1533343 27.9592083,44.8780083 34.1020728,44.8780083 C40.2422834,44.8780083 46.3478716,47.1520142 52.252897,49.3515899 C55.5846912,50.6677897 58.9890811,51.7922322 62.4493686,52.7194024 C63.1183666,52.8826837 63.5600087,53.5199129 63.478054,54.2036544 C63.3960991,54.8873961 62.8163716,55.4022014 62.1277361,55.4027538 L62.1277497,55.4027811 Z" id="Path" fill="#6D6DAA"></path>
                <path d="M61.2412426,27.2189349 L6.80337278,27.2189349 C3.79685225,27.2189349 1.3595858,24.7816685 1.3595858,21.7751479 C1.3595858,18.7686274 3.79685225,16.3313609 6.80337278,16.3313609 L10.0077083,16.3313609 C13.9031053,6.47531962 23.4250659,-3.51251408e-06 34.0229746,-3.51251408e-06 C44.6208833,-3.51251408e-06 54.1428438,6.47531962 58.0382408,16.3313609 L61.2412426,16.3313609 C64.2477631,16.3313609 66.6850296,18.7686274 66.6850296,21.7751479 C66.6850296,24.7816685 64.2477631,27.2189349 61.2412426,27.2189349 L61.2412426,27.2189349 Z M6.80337278,19.0532544 C5.30011251,19.0532544 4.08147929,20.2718877 4.08147929,21.7751479 C4.08147929,23.2784082 5.30011251,24.4970414 6.80337278,24.4970414 L61.2412426,24.4970414 C62.7445029,24.4970414 63.9631361,23.2784082 63.9631361,21.7751479 C63.9631361,20.2718877 62.7445029,19.0532544 61.2412426,19.0532544 L57.0959349,19.0532544 C56.5194298,19.0538002 56.0053393,18.6904814 55.8134059,18.1468639 C52.5563167,8.90423741 43.822708,2.72191516 34.0229746,2.72191516 C24.2232411,2.72191516 15.4896324,8.90423741 12.2325432,18.1468639 C12.0402919,18.690229 11.5264146,19.0534047 10.9500414,19.0532544 L6.80337278,19.0532544 Z" id="Shape" fill="#6D6DAA"></path>
                <path d="M40.9629456,19.0824876 C39.8355004,19.0824876 38.9215254,18.1685126 38.9215254,17.0410675 C38.9215254,15.9136223 39.8355004,14.9996473 40.9629456,14.9996473 C42.0903907,14.9996473 43.0043657,15.9136223 43.0043657,17.0410675 C43.0031355,18.1680027 42.0898808,19.0812574 40.9629456,19.0824876 L40.9629456,19.0824876 Z" id="Path" fill="#6D6DAA"></path>
                <path d="M27.3534781,19.0824876 C26.2260329,19.0824876 25.312058,18.1685126 25.312058,17.0410675 C25.312058,15.9136223 26.2260329,14.9996473 27.3534781,14.9996473 C28.4809233,14.9996473 29.3948982,15.9136223 29.3948982,17.0410675 C29.3936681,18.1680027 28.4804133,19.0812574 27.3534781,19.0824876 L27.3534781,19.0824876 Z" id="Path" fill="#6D6DAA"></path>
                <path d="M34.1582118,12.2883964 C33.0309439,12.2883962 32.1170425,11.3746976 32.1167923,10.2474297 C32.1165418,9.12016172 33.0300372,8.20605734 34.1573052,8.20555642 C35.284573,8.20505549 36.1988804,9.11834765 36.199632,10.2456154 C36.1985232,11.3728215 35.2854169,12.2865364 34.1582118,12.2883964 L34.1582118,12.2883964 Z" id="Path" fill="#6D6DAA"></path>
            </g>
        </g>
    </g>
</svg>