<svg xmlns="http://www.w3.org/2000/svg" width="192px" height="192px" fill-rule="evenodd" shape-rendering="geometricPrecision">
  <path d="M102.93 89.43c.87-17.88 8.5-45.89 24.8-67.75A401.02 401.02 0 0059 95.85c-1.3 1.6-2.78 1.5-4.63 1.37.8.47 1.94.98 2.75 1.28a20.65 20.65 0 0010.35.52c4.14-6.3 8.34-12.45 12.61-18.47a108.64 108.64 0 00-8.3 17.34c10.35-3.42 20.27-11.1 31.14-8.46zM89.07 102.57c-.87 17.89-8.5 45.89-24.8 67.75A401 401 0 00133 96.15c1.3-1.6 2.78-1.5 4.63-1.37-.8-.47-1.94-.98-2.75-1.28a20.66 20.66 0 00-10.35-.52 611.68 611.68 0 01-12.61 18.47 108.72 108.72 0 008.3-17.34c-10.35 3.42-20.27 11.1-31.14 8.46z" fill="black"/>
</svg>
